<?xml version="1.0" encoding="utf-8"?>
<!-- Generator: Adobe Illustrator 24.1.2, SVG Export Plug-In . SVG Version: 6.00 Build 0)  -->
<svg version="1.1" id="Badges" xmlns="http://www.w3.org/2000/svg" xmlns:xlink="http://www.w3.org/1999/xlink" x="0px" y="0px"
	 viewBox="0 0 128 40" style="enable-background:new 0 0 128 40;" xml:space="preserve">
<style type="text/css">
	.st0{fill:#FFFFFF;}
</style>
<g>
	<path d="M124,40H4c-2.2,0-4-1.8-4-4V4c0-2.2,1.8-4,4-4h120c2.2,0,4,1.8,4,4v32C128,38.2,126.2,40,124,40z"/>
	<g>
		<g id="bag_3_">
			<path class="st0" d="M18.2,29.3l-9-1.3v-7.6h9V29.3z M18.2,19.7h-9v-7.2l9-1.3V19.7z M30.5,31l-11.6-1.7v-8.9h11.6V31z
				 M30.5,19.7H18.9v-8.5l11.6-1.7V19.7z"/>
		</g>
	</g>
	<g>
		<path class="st0" d="M46,15.2c-0.4,0.2-1.3,0.4-2.3,0.4c-1.1,0-2.1-0.3-2.8-1c-0.6-0.6-1-1.6-1-2.8c0-2.2,1.5-3.9,4-3.9
			c0.9,0,1.5,0.2,1.9,0.3L45.6,9c-0.4-0.2-0.9-0.3-1.6-0.3c-1.8,0-3,1.1-3,3s1.1,3,2.9,3c0.6,0,1.1-0.1,1.3-0.2v-2.2h-1.5v-0.8h2.4
			L46,15.2L46,15.2z"/>
		<path class="st0" d="M48,13c0,1.3,0.9,1.9,1.8,1.9c0.7,0,1.1-0.1,1.5-0.3l0.2,0.7c-0.3,0.2-0.9,0.3-1.8,0.3
			c-1.6,0-2.6-1.1-2.6-2.7S48,10,49.6,10c1.7,0,2.2,1.5,2.2,2.5c0,0.2,0,0.4,0,0.5C51.8,13,48,13,48,13z M50.9,12.3
			c0-0.6-0.3-1.6-1.3-1.6s-1.4,0.9-1.5,1.6H50.9z"/>
		<path class="st0" d="M54.2,8.6v1.5h1.4v0.7h-1.4v2.9c0,0.7,0.2,1,0.7,1c0.3,0,0.4,0,0.6-0.1v0.7c-0.2,0.1-0.5,0.1-0.9,0.1
			c-0.5,0-0.8-0.1-1-0.4c-0.3-0.3-0.4-0.8-0.4-1.4v-2.9h-0.8V10h0.8V8.7L54.2,8.6z"/>
		<path class="st0" d="M60.1,8.6c0,0.3-0.2,0.6-0.6,0.6c-0.3,0-0.6-0.3-0.6-0.6c0-0.3,0.3-0.6,0.6-0.6S60.1,8.3,60.1,8.6z M59,15.5
			v-5.4h1v5.4H59z"/>
		<path class="st0" d="M62.7,8.6v1.5h1.4v0.7h-1.4v2.9c0,0.7,0.2,1,0.7,1c0.3,0,0.4,0,0.6-0.1v0.7c-0.2,0.1-0.5,0.1-0.9,0.1
			c-0.5,0-0.8-0.1-1-0.4c-0.3-0.3-0.4-0.8-0.4-1.4v-2.9h-0.8V10h0.8V8.7L62.7,8.6z"/>
		<path class="st0" d="M72.3,12.8c0,2-1.4,2.9-2.7,2.9c-1.4,0-2.6-1.1-2.6-2.8c0-1.8,1.2-2.9,2.6-2.9C71.3,10,72.3,11.1,72.3,12.8z
			 M68.1,12.8c0,1.2,0.7,2.1,1.6,2.1s1.6-0.9,1.6-2.1c0-0.9-0.5-2.1-1.6-2.1C68.6,10.7,68.1,11.8,68.1,12.8z"/>
		<path class="st0" d="M73.5,11.6c0-0.6,0-1,0-1.5h0.9l0.1,0.9l0,0c0.3-0.5,0.9-1,1.8-1c0.7,0,1.9,0.4,1.9,2.3v3.2h-1v-3.1
			c0-0.9-0.3-1.6-1.2-1.6c-0.6,0-1.1,0.5-1.3,1c0,0.1-0.1,0.3-0.1,0.5v3.2h-1L73.5,11.6L73.5,11.6z"/>
		<path class="st0" d="M42.5,31.7l-2.7-10.9h1.5l1.3,5.5c0.3,1.4,0.6,2.7,0.8,3.8l0,0c0.2-1.1,0.5-2.4,0.9-3.8l1.4-5.5h1.5l1.3,5.5
			c0.3,1.3,0.6,2.6,0.8,3.7l0,0c0.2-1.2,0.5-2.4,0.9-3.8l1.4-5.5H53l-3.1,10.9h-1.5L47,25.9c-0.3-1.4-0.6-2.5-0.7-3.6l0,0
			c-0.2,1.1-0.4,2.1-0.8,3.6L44,31.6L42.5,31.7L42.5,31.7z"/>
		<path class="st0" d="M55.5,21.6c0,0.5-0.3,0.9-0.9,0.9c-0.5,0-0.9-0.4-0.9-0.9s0.4-0.9,0.9-0.9C55.2,20.8,55.5,21.1,55.5,21.6z
			 M53.9,31.7v-7.8h1.4v7.8H53.9z"/>
		<path class="st0" d="M57.1,26c0-0.8,0-1.5-0.1-2.1h1.3l0.1,1.3l0,0c0.4-0.7,1.3-1.5,2.6-1.5c1.1,0,2.7,0.6,2.7,3.3v4.7h-1.4v-4.5
			c0-1.3-0.5-2.3-1.8-2.3c-0.9,0-1.7,0.7-1.9,1.5c-0.1,0.2-0.1,0.4-0.1,0.7v4.7h-1.4L57.1,26L57.1,26z"/>
		<path class="st0" d="M72.6,20.2v9.5c0,0.7,0,1.5,0.1,2h-1.3l-0.1-1.4l0,0c-0.4,0.9-1.4,1.5-2.6,1.5c-1.9,0-3.3-1.6-3.3-4
			c0-2.6,1.6-4.2,3.5-4.2c1.2,0,2,0.6,2.3,1.2l0,0v-4.7h1.4V20.2z M71.2,27c0-0.2,0-0.4-0.1-0.6c-0.2-0.9-1-1.6-2-1.6
			c-1.5,0-2.3,1.3-2.3,3c0,1.6,0.8,2.9,2.3,2.9c0.9,0,1.8-0.6,2.1-1.7c0-0.2,0.1-0.4,0.1-0.6V27H71.2z"/>
		<path class="st0" d="M81.5,27.7c0,2.9-2,4.2-3.9,4.2c-2.1,0-3.7-1.6-3.7-4c0-2.6,1.7-4.2,3.9-4.2C80,23.7,81.5,25.3,81.5,27.7z
			 M75.4,27.8c0,1.7,1,3,2.4,3c1.3,0,2.4-1.3,2.4-3c0-1.3-0.7-3-2.3-3C76.1,24.7,75.4,26.3,75.4,27.8z"/>
		<path class="st0" d="M83.3,23.8l1,4c0.2,0.9,0.4,1.7,0.6,2.5l0,0c0.2-0.8,0.4-1.6,0.7-2.5l1.3-4h1.2l1.2,3.9
			c0.3,0.9,0.5,1.8,0.7,2.6l0,0c0.1-0.8,0.3-1.6,0.6-2.5l1.1-3.9h1.4l-2.5,7.8h-1.3L88.1,28c-0.3-0.9-0.5-1.6-0.7-2.6l0,0
			c-0.2,0.9-0.4,1.7-0.7,2.6l-1.3,3.7h-1.2l-2.3-7.8L83.3,23.8L83.3,23.8z"/>
		<path class="st0" d="M94.2,30.2c0.4,0.3,1.2,0.6,1.9,0.6c1,0,1.5-0.5,1.5-1.2s-0.4-1.1-1.4-1.4c-1.4-0.5-2.1-1.3-2.1-2.2
			c0-1.3,1-2.3,2.7-2.3c0.8,0,1.5,0.2,1.9,0.5l-0.4,1c-0.3-0.2-0.9-0.5-1.6-0.5c-0.8,0-1.3,0.5-1.3,1.1s0.5,0.9,1.5,1.3
			c1.3,0.5,2,1.2,2,2.4c0,1.4-1.1,2.3-2.9,2.3c-0.9,0-1.6-0.2-2.2-0.5L94.2,30.2z"/>
		<path class="st0" d="M105.5,22.5L105.5,22.5l-1.8,1l-0.3-1.1l2.3-1.2h1.2v10.5h-1.4L105.5,22.5L105.5,22.5z"/>
		<path class="st0" d="M116.7,26.3c0,3.6-1.3,5.5-3.6,5.5c-2,0-3.4-1.9-3.5-5.4c0-3.5,1.5-5.5,3.6-5.5C115.5,21,116.7,23,116.7,26.3
			z M111,26.5c0,2.7,0.8,4.3,2.1,4.3c1.4,0,2.1-1.7,2.1-4.4c0-2.6-0.7-4.3-2.1-4.3C111.9,22.1,111,23.6,111,26.5z"/>
	</g>
</g>
</svg>
